HIERARCHY
ROOT Hips
{
  OFFSET 49.8666 86.5988 7.99404
  CHANNELS 6 Xposition Yposition Zposition Zrotation Xrotation Yrotation
  JOINT spine
  {
    OFFSET 0 6.84637 0.3937
    CHANNELS 3 Zrotation Xrotation Yrotation
    JOINT spine1
    {
      OFFSET 0 9.49621 0
      CHANNELS 3 Zrotation Xrotation Yrotation
      JOINT spine2
      {
        OFFSET 0 9.09909 0
        CHANNELS 3 Zrotation Xrotation Yrotation
        JOINT Neck
        {
          OFFSET 0 23.3612 1.11378
          CHANNELS 3 Zrotation Xrotation Yrotation
          JOINT Head
          {
            OFFSET 0 7.05802 0
            CHANNELS 3 Zrotation Xrotation Yrotation
            End Site
            {
              OFFSET 0 17.0844 -5.63419
            }
          }
        }
        JOINT RightShoulder
        {
          OFFSET -3.83136 9.82631 -0.533491
          CHANNELS 3 Zrotation Xrotation Yrotation
          JOINT RightArm
          {
            OFFSET 0 12.8881 0
            CHANNELS 3 Zrotation Xrotation Yrotation
            JOINT RightArmRoll
            {
              OFFSET 0 6.50617 0
              CHANNELS 3 Zrotation Xrotation Yrotation
              JOINT RightForeArm
              {
                OFFSET 0 18.9501 0
                CHANNELS 3 Zrotation Xrotation Yrotation
                JOINT RightForeArmRoll
                {
                  OFFSET 0 7.30093 0
                  CHANNELS 3 Zrotation Xrotation Yrotation
                  JOINT RightHand
                  {
                    OFFSET 0 14.6514 0
                    CHANNELS 3 Zrotation Xrotation Yrotation
                    End Site
                    {
                      OFFSET 0 0 0
                    }
                  }
                }
              }
            }
          }
        }
        JOINT LeftShoulder
        {
          OFFSET 3.83136 9.82631 -0.533491
          CHANNELS 3 Zrotation Xrotation Yrotation
          JOINT LeftArm
          {
            OFFSET 0 12.8881 0
            CHANNELS 3 Zrotation Xrotation Yrotation
            JOINT LeftArmRoll
            {
              OFFSET 0 6.50617 0
              CHANNELS 3 Zrotation Xrotation Yrotation
              JOINT LeftForeArm
              {
                OFFSET 0 18.9501 0
                CHANNELS 3 Zrotation Xrotation Yrotation
                JOINT LeftForeArmRoll
                {
                  OFFSET 0 7.30093 0
                  CHANNELS 3 Zrotation Xrotation Yrotation
                  JOINT LeftHand
                  {
                    OFFSET 0 14.6514 0
                    CHANNELS 3 Zrotation Xrotation Yrotation
                    End Site
                    {
                      OFFSET 0 0 0
                    }
                  }
                }
              }
            }
          }
        }
      }
    }
  }
  JOINT RightUpLeg
  {
    OFFSET -6.06837 -1.11278 -0.933477
    CHANNELS 3 Zrotation Xrotation Yrotation
    JOINT RightUpLegRoll
    {
      OFFSET 0 17.1796 0
      CHANNELS 3 Zrotation Xrotation Yrotation
      JOINT RightLeg
      {
        OFFSET 0 -21.2743 0
        CHANNELS 3 Zrotation Xrotation Yrotation
        JOINT RightLegRoll
        {
          OFFSET 0 21.3439 0
          CHANNELS 3 Zrotation Xrotation Yrotation
          JOINT RightFoot
          {
            OFFSET 0 17.7652 0
            CHANNELS 3 Zrotation Xrotation Yrotation
            JOINT RightToeBase
            {
              OFFSET 0 14.8508 0
              CHANNELS 3 Zrotation Xrotation Yrotation
              End Site
              {
                OFFSET 0.0062947 7.19213 -0.829005
              }
            }
          }
        }
      }
    }
  }
  JOINT LeftUpLeg
  {
    OFFSET 6.06837 -1.11278 -0.933477
    CHANNELS 3 Zrotation Xrotation Yrotation
    JOINT LeftUpLegRoll
    {
      OFFSET 0 17.1797 0
      CHANNELS 3 Zrotation Xrotation Yrotation
      JOINT LeftLeg
      {
        OFFSET 0 21.2742 0
        CHANNELS 3 Zrotation Xrotation Yrotation
        JOINT LeftLegRoll
        {
          OFFSET 0 21.5412 0
          CHANNELS 3 Zrotation Xrotation Yrotation
          JOINT LeftFoot
          {
            OFFSET 0 17.5679 0
            CHANNELS 3 Zrotation Xrotation Yrotation
            JOINT LeftToeBase
            {
              OFFSET 0 14.8508 0
              CHANNELS 3 Zrotation Xrotation Yrotation
              End Site
              {
                OFFSET -0.0282102 7.19214 -0.829004
              }
            }
          }
        }
      }
    }
  }
}
MOTION
Frames: 13
Frame Time: 0.00208333
49.6191 86.5528 6.48934 -0.0686069 -3.64056 -2.16481 1.61408 -1.56734 1.32905 3.24569 0.897059 2.49252 3.21792 2.53997 2.43929 -17.9899 5.26117 1.40823 9.60462 10.6547 -2.92168 47.2921 -6.5539 -3.47838 146.374 46.9585 -54.9756 7.8213e-006 -4.67204e-007 -5.94915e-006 15.0925 46.9933 -4.76984 -1.32091e-005 -3.92052e-007 -3.01052 8.02894 -4.95146 0.697704 -75.7874 -7.27831 5.06722 -139.913 56.3068 31.3353 1.59028e-015 1.95589e-006 -7.7526e-015 -25.9071 29.7044 8.61581 1.05402e-005 -1.39984e-006 3.01009 -8.0289 -4.95146 -0.697691 -179.614 12.7423 -2.66198 180 7.01477e-015 178.652 176.401 23.9868 -179.713 -1.24894e-006 -4.48345e-006 0.73803 -23.8091 70.8594 22.4756 8.13649 25.2327 -3.48774 -175.458 10.5339 -1.23334 4.54188e-006 -4.6773e-006 -0.722328 -0.866015 -24.7265 0.899486 5.35018e-007 -4.00495e-006 -0.368102 19.5122 73.5863 -24.9092 -8.1365 25.2327 3.48774 
49.6277 86.5514 6.47857 -0.0637941 -3.64198 -2.16985 1.61302 -1.56558 1.32945 3.24258 0.899245 2.49361 3.21478 2.54216 2.44044 -18.0022 5.24314 1.40876 9.61909 10.67 -2.92274 47.2824 -6.53074 -3.45984 146.76 46.8711 -55.797 7.8213e-006 -4.67204e-007 -5.94915e-006 15.1524 47.0606 -4.73192 -1.32091e-005 -3.92052e-007 -3.01052 8.02894 -4.95146 0.697704 -75.7906 -7.28069 5.06839 -140.425 56.3595 31.571 -1.19271e-015 1.95589e-006 -1.39149e-014 -25.9173 29.2546 8.49619 1.05402e-005 -1.39984e-006 3.01009 -8.0289 -4.95146 -0.697691 -179.616 12.7537 -2.66409 180 7.01477e-015 178.652 176.405 23.9974 -179.714 -1.24894e-006 -4.48345e-006 0.73803 -23.805 70.8577 22.4725 8.13649 25.2327 -3.48774 -175.459 10.5283 -1.23685 4.54188e-006 -4.6773e-006 -0.722337 -0.871253 -24.719 0.897407 5.35018e-007 -4.00495e-006 -0.36781 19.5097 73.583 -24.9045 -8.1365 25.2327 3.48774 
49.6228 86.5534 6.48063 -0.0586733 -3.64303 -2.17519 1.61188 -1.56385 1.32977 3.23928 0.901307 2.49456 3.21146 2.54423 2.44145 -18.0159 5.22417 1.40979 9.63519 10.6863 -2.92358 47.2717 -6.50682 -3.44066 147.144 46.7781 -56.6121 7.8213e-006 -4.67204e-007 -5.94915e-006 15.2121 47.1282 -4.69399 -1.32091e-005 -3.92052e-007 -3.01051 8.02894 -4.95146 0.697704 -75.795 -7.28395 5.06997 -140.935 56.4115 31.8042 6.36111e-015 1.95589e-006 -3.97569e-016 -25.927 28.802 8.37568 1.05402e-005 -1.39984e-006 3.01009 -8.0289 -4.95146 -0.697691 -179.618 12.7661 -2.66634 180 7.01477e-015 178.652 176.409 24.0088 -179.715 -1.24894e-006 -4.48345e-006 0.738013 -23.801 70.8562 22.4695 8.13649 25.2327 -3.48774 -175.46 10.5228 -1.24043 4.54188e-006 -4.6773e-006 -0.722345 -0.876737 -24.711 0.895231 5.35018e-007 -4.00495e-006 -0.367509 19.507 73.5795 -24.8996 -8.1365 25.2327 3.48774 
49.624 86.5515 6.47544 -0.0533099 -3.64365 -2.18072 1.61067 -1.56218 1.33002 3.23583 0.903269 2.49536 3.20798 2.54619 2.44231 -18.0306 5.20416 1.41118 9.65254 10.7036 -2.92423 47.2597 -6.4825 -3.42109 147.526 46.6802 -57.4121 7.8213e-006 -4.67204e-007 -5.94915e-006 15.2718 47.1938 -4.65687 -1.32091e-005 -3.92052e-007 -3.01051 8.02894 -4.95146 0.697704 -75.7994 -7.2877 5.07176 -141.442 56.4605 32.0348 7.15625e-015 1.95589e-006 1.59028e-015 -25.9379 28.3531 8.25688 1.05402e-005 -1.39984e-006 3.01009 -8.0289 -4.95146 -0.697691 -179.619 12.7795 -2.66868 180 7.01477e-015 178.653 176.413 24.0208 -179.716 -1.24894e-006 -4.48345e-006 0.737984 -23.7969 70.8547 22.4666 8.13649 25.2327 -3.48774 -175.461 10.5176 -1.24394 4.54188e-006 -4.6773e-006 -0.722354 -0.882342 -24.7028 0.893008 5.35018e-007 -4.00495e-006 -0.367203 19.5042 73.5758 -24.8945 -8.1365 25.2327 3.48774 
49.6209 86.5537 6.47591 -0.0477696 -3.6438 -2.18632 1.6094 -1.56056 1.33021 3.23227 0.905155 2.49601 3.20439 2.54808 2.44303 -18.046 5.18307 1.41278 9.67075 10.7218 -2.92474 47.2461 -6.45812 -3.40139 147.903 46.5784 -58.1886 7.8213e-006 -4.67204e-007 -5.94915e-006 15.3316 47.2552 -4.6214 -1.32091e-005 -3.92052e-007 -3.0105 8.02894 -4.95146 0.697704 -75.803 -7.29158 5.07358 -141.943 56.5047 32.2629 1.98785e-015 1.95589e-006 -7.95139e-015 -25.9514 27.9144 8.14225 1.05402e-005 -1.39984e-006 3.01009 -8.0289 -4.95146 -0.697691 -179.621 12.7938 -2.67104 180 7.01477e-015 178.653 176.417 24.0332 -179.717 -1.24894e-006 -4.48345e-006 0.737948 -23.7929 70.8532 22.4637 8.13649 25.2327 -3.48774 -175.463 10.5129 -1.24727 4.54188e-006 -4.6773e-006 -0.722365 -0.887944 -24.6943 0.89079 5.35018e-007 -4.00495e-006 -0.366897 19.5009 73.5719 -24.889 -8.1365 25.2327 3.48774 
49.6285 86.5561 6.46827 -0.0421175 -3.64341 -2.19187 1.60808 -1.55901 1.33035 3.22863 0.90699 2.49652 3.20074 2.54992 2.44361 -18.0617 5.1608 1.41445 9.68943 10.7409 -2.92516 47.2307 -6.43406 -3.38182 148.274 46.4741 -58.9331 7.8213e-006 -4.67204e-007 -5.94915e-006 15.3917 47.3103 -4.5884 -1.32091e-005 -3.92052e-007 -3.0105 8.02894 -4.95146 0.697704 -75.8048 -7.29522 5.07522 -142.437 56.5419 32.4885 4.77083e-015 1.95589e-006 -3.97569e-015 -25.9688 27.4925 8.03419 1.05402e-005 -1.39984e-006 3.01009 -8.0289 -4.95146 -0.697691 -179.623 12.8089 -2.67335 180 7.01477e-015 178.654 176.421 24.0458 -179.718 -1.24894e-006 -4.48345e-006 0.737909 -23.7889 70.8516 22.4609 8.13649 25.2327 -3.48774 -175.464 10.509 -1.25027 4.54188e-006 -4.6773e-006 -0.722381 -0.89342 -24.6857 0.888628 5.35018e-007 -4.00495e-006 -0.366596 19.4971 73.5677 -24.8832 -8.1365 25.2327 3.48774 
49.6262 86.5566 6.46603 -0.0364192 -3.64244 -2.19726 1.60671 -1.55752 1.33044 3.22496 0.908798 2.49688 3.19705 2.55173 2.44404 -18.0775 5.1373 1.41606 9.70821 10.7608 -2.92554 47.213 -6.41064 -3.36264 148.639 46.3692 -59.6375 7.8213e-006 -4.67204e-007 -5.94915e-006 15.4524 47.3567 -4.55874 -1.32091e-005 -3.92052e-007 -3.0105 8.02894 -4.95146 0.697704 -75.8038 -7.29824 5.07649 -142.921 56.57 32.7114 3.97569e-015 1.95589e-006 -2.38542e-015 -25.9915 27.0939 7.93502 1.05402e-005 -1.39984e-006 3.01009 -8.0289 -4.95146 -0.697691 -179.625 12.8246 -2.67556 180 7.01477e-015 178.654 176.425 24.0584 -179.718 -1.24894e-006 -4.48345e-006 0.737872 -23.7849 70.85 22.458 8.13649 25.2327 -3.48774 -175.466 10.5059 -1.25282 4.54188e-006 -4.6773e-006 -0.722402 -0.898643 -24.677 0.886571 5.35018e-007 -4.00495e-006 -0.366306 19.4927 73.5631 -24.877 -8.1365 25.2327 3.48774 
49.6228 86.5531 6.45036 -0.0307401 -3.64083 -2.20239 1.60531 -1.55611 1.3305 3.2213 0.910602 2.4971 3.19337 2.55354 2.44432 -18.0929 5.11248 1.41747 9.7267 10.7814 -2.92591 47.1928 -6.38824 -3.34409 148.995 46.2655 -60.294 7.8213e-006 -4.67204e-007 -5.94915e-006 15.5139 47.3924 -4.53326 -1.32091e-005 -3.92052e-007 -3.01049 8.02894 -4.95146 0.697704 -75.799 -7.30028 5.0772 -143.392 56.587 32.9315 1.43125e-014 1.95589e-006 1.43125e-014 -26.0206 26.7254 7.84697 1.05402e-005 -1.39984e-006 3.01009 -8.0289 -4.95146 -0.697691 -179.628 12.8409 -2.67761 180 7.01477e-015 178.654 176.429 24.0708 -179.719 -1.24894e-006 -4.48345e-006 0.737842 -23.7808 70.8482 22.455 8.13649 25.2327 -3.48774 -175.468 10.504 -1.25478 4.54188e-006 -4.6773e-006 -0.722431 -0.903491 -24.6683 0.884671 5.35018e-007 -4.00495e-006 -0.36603 19.4875 73.5582 -24.8703 -8.1365 25.2327 3.48774 
49.6228 86.5548 6.45127 -0.0251456 -3.63852 -2.20712 1.60389 -1.55478 1.33052 3.2177 0.912427 2.49718 3.18975 2.55536 2.44447 -18.1078 5.08629 1.41853 9.74451 10.8027 -2.92633 47.1699 -6.3672 -3.32645 149.341 46.1656 -60.895 7.8213e-006 -4.67204e-007 -5.94915e-006 15.5762 47.415 -4.51283 -1.32091e-005 -3.92052e-007 -3.01049 8.02894 -4.95146 0.697704 -75.7895 -7.30095 5.07715 -143.849 56.5908 33.1486 3.18055e-015 1.95589e-006 -7.95139e-015 -26.057 26.3934 7.77226 1.05402e-005 -1.39984e-006 3.01009 -8.0289 -4.95146 -0.697691 -179.63 12.8577 -2.67943 180 7.01478e-015 178.655 176.433 24.0828 -179.72 -1.24894e-006 -4.48345e-006 0.737823 -23.7768 70.8462 22.4519 8.13649 25.2327 -3.48774 -175.47 10.5034 -1.25602 4.54188e-006 -4.6773e-006 -0.722469 -0.90784 -24.6597 0.882979 5.35018e-007 -4.00495e-006 -0.365774 19.4815 73.5529 -24.8631 -8.1365 25.2327 3.48774 
49.6169 86.5536 6.44271 -0.019701 -3.63548 -2.21136 1.60245 -1.55354 1.33052 3.21418 0.914298 2.49711 3.18623 2.55724 2.44447 -18.1217 5.05864 1.4191 9.76125 10.8246 -2.92684 47.1438 -6.34787 -3.30995 149.678 46.0717 -61.433 7.8213e-006 -4.67204e-007 -5.94915e-006 15.6398 47.4223 -4.49828 -1.32091e-005 -3.92052e-007 -3.01049 8.02894 -4.95146 0.697704 -75.7743 -7.29989 5.07616 -144.288 56.5794 33.3626 1.82882e-014 1.95589e-006 2.0276e-014 -26.1019 26.1046 7.71305 1.05402e-005 -1.39984e-006 3.01009 -8.0289 -4.95146 -0.697691 -179.633 12.8748 -2.68096 180 7.01478e-015 178.655 176.436 24.0942 -179.72 -1.24894e-006 -4.48345e-006 0.73782 -23.7728 70.8439 22.4487 8.13649 25.2327 -3.48774 -175.472 10.5044 -1.25642 4.54188e-006 -4.6773e-006 -0.722518 -0.911564 -24.6513 0.881546 5.35018e-007 -4.00495e-006 -0.365543 19.4745 73.5471 -24.8553 -8.1365 25.2327 3.48774 
49.6189 86.5528 6.43731 -0.0144719 -3.63163 -2.21498 1.60101 -1.5524 1.3305 3.2108 0.916238 2.49691 3.18284 2.55918 2.44432 -18.1343 5.02947 1.41904 9.77656 10.8471 -2.9275 47.1144 -6.33062 -3.29486 150.003 45.9865 -61.9009 7.8213e-006 -4.67204e-007 -5.94915e-006 15.7046 47.4123 -4.49048 -1.32091e-005 -3.92052e-007 -3.01048 8.02894 -4.95146 0.697704 -75.7524 -7.29672 5.07402 -144.708 56.5508 33.573 7.95139e-015 1.95589e-006 1.19271e-015 -26.156 25.8656 7.67152 1.05402e-005 -1.39984e-006 3.01009 -8.0289 -4.95146 -0.697691 -179.636 12.8923 -2.68214 180 7.01478e-015 178.656 176.438 24.1049 -179.72 -1.24894e-006 -4.48345e-006 0.737837 -23.7687 70.8414 22.4454 8.13649 25.2327 -3.48774 -175.474 10.507 -1.25583 4.54188e-006 -4.6773e-006 -0.722581 -0.91454 -24.6432 0.880421 5.35018e-007 -4.00495e-006 -0.365342 19.4664 73.5407 -24.8469 -8.1365 25.2327 3.48774 
49.6227 86.5534 6.434 -0.00952382 -3.62694 -2.21787 1.59958 -1.55135 1.33048 3.2076 0.918272 2.49657 3.17964 2.56122 2.44404 -18.1453 4.99871 1.41822 9.79004 10.87 -2.92834 47.0813 -6.31579 -3.28144 150.316 45.9125 -62.2913 7.8213e-006 -4.67204e-007 -5.94915e-006 15.7711 47.3825 -4.49026 -1.32091e-005 -3.92052e-007 -3.01048 8.02894 -4.95146 0.697704 -75.723 -7.29108 5.07055 -145.106 56.5028 33.7798 1.59028e-014 1.95589e-006 1.74931e-014 -26.2206 25.683 7.64986 1.05402e-005 -1.39984e-006 3.01009 -8.0289 -4.95146 -0.697691 -179.639 12.9099 -2.68291 180 7.01478e-015 178.656 176.44 24.1145 -179.721 -1.24894e-006 -4.48345e-006 0.73788 -23.7646 70.8385 22.4418 8.13649 25.2327 -3.48774 -175.477 10.5115 -1.25414 4.54188e-006 -4.6773e-006 -0.722657 -0.916645 -24.6354 0.879656 5.35018e-007 -4.00495e-006 -0.365175 19.4571 73.5338 -24.8377 -8.1365 25.2327 3.48774 
49.621 86.5518 6.42902 -0.00460983 -3.62102 -2.22029 1.59811 -1.55041 1.33039 3.20449 0.920435 2.49591 3.17652 2.56338 2.44343 -18.1561 4.96405 1.4169 9.80291 10.8954 -2.92924 47.0421 -6.30302 -3.26926 150.632 45.8551 -62.6037 7.8213e-006 -4.67204e-007 -5.94915e-006 15.8444 47.3265 -4.50092 -1.32091e-005 -3.92052e-007 -3.01047 8.02894 -4.95146 0.697704 -75.6848 -7.28311 5.06576 -145.492 56.436 33.9685 6.36111e-015 1.95589e-006 -1.59028e-015 -26.2899 25.5456 7.6447 1.05402e-005 -1.39984e-006 3.01009 -8.0289 -4.95146 -0.697691 -179.642 12.9296 -2.68325 180 -7.01478e-015 178.656 176.442 24.1247 -179.721 -1.24894e-006 -4.48345e-006 0.737942 -23.7605 70.8352 22.4381 8.13649 25.2327 -3.48774 -175.481 10.5184 -1.25109 4.54188e-006 -4.6773e-006 -0.722747 -0.917822 -24.6276 0.879279 5.35018e-007 -4.00495e-006 -0.365039 19.446 73.526 -24.8274 -8.1365 25.2327 3.48774 
